<svg xmlns="http://www.w3.org/2000/svg" xmlns:xlink="http://www.w3.org/1999/xlink" width="500" zoomAndPan="magnify" viewBox="0 0 375 374.999991" height="500" preserveAspectRatio="xMidYMid meet" version="1.0"><defs><g/><clipPath id="4bfa51cc16"><path d="M 52.90625 58.984375 L 322.15625 58.984375 L 322.15625 320.734375 L 52.90625 320.734375 Z M 52.90625 58.984375 " clip-rule="nonzero"/></clipPath><clipPath id="97509afb0b"><path d="M 184 77.359375 L 262.5 77.359375 L 262.5 191 L 184 191 Z M 184 77.359375 " clip-rule="nonzero"/></clipPath><clipPath id="2f95a2b9d1"><path d="M 112.5 130 L 197 130 L 197 199 L 112.5 199 Z M 112.5 130 " clip-rule="nonzero"/></clipPath><clipPath id="21f8d9abb3"><rect x="0" width="191" y="0" height="57"/></clipPath></defs><g clip-path="url(#4bfa51cc16)"><path fill="#38b6ff" d="M 179.640625 76.867188 L 189.410156 77.84375 L 197.472656 81.234375 L 196.835938 87.0625 L 189.425781 94.496094 L 191.175781 98.378906 L 184.425781 100.613281 L 183.542969 107.441406 L 186.542969 112.375 L 191.308594 114.835938 L 191.355469 121.089844 L 196.191406 121.289062 L 201.367188 124.464844 L 207.574219 121.570312 L 205.851562 122.980469 L 201.207031 127.179688 L 202.515625 130.117188 L 206.972656 126 L 210.539062 126.726562 L 214.898438 128.421875 L 217.691406 132.054688 L 220.976562 135.171875 L 224.546875 136 L 228.789062 137.5 L 234.019531 137.058594 L 241.417969 139.195312 L 241.566406 144.019531 L 236.46875 145.773438 L 231.730469 145.042969 L 234.609375 149.425781 L 231.554688 151.871094 L 236.210938 153.3125 L 241.25 155.273438 L 247.398438 158.507812 L 249.234375 161.757812 L 249.171875 165.035156 L 244.730469 161.214844 L 244.292969 159.367188 L 238.960938 162.21875 L 243.453125 161.671875 L 249.742188 166.296875 L 251.761719 169.953125 L 252.535156 173.550781 L 253.457031 168.933594 L 254.605469 173.152344 L 254.773438 180.015625 L 253.722656 179.523438 L 252.507812 179.992188 L 252.421875 189.476562 L 253.746094 193.054688 L 254.355469 200.65625 L 252.929688 209.523438 L 251.746094 213.773438 L 248.574219 217.84375 L 247.542969 217.707031 L 240.46875 223.265625 L 234.816406 226.808594 L 231.792969 232.488281 L 232.554688 233.984375 L 231.59375 235.132812 L 225.921875 238.152344 L 212.378906 243.503906 L 196.210938 248.160156 L 184.984375 250.640625 L 184.3125 249.933594 L 180.277344 249.4375 L 177.675781 249.171875 L 169.429688 247.375 L 162.660156 245.089844 L 156.507812 242.296875 L 150.960938 239.078125 L 145.96875 235.511719 L 141.277344 231.585938 L 138.195312 228.488281 L 135.925781 225.75 L 134.152344 223.222656 L 132.316406 219.667969 L 130.855469 215.144531 L 129.867188 208.183594 L 129.519531 204.523438 L 128.863281 203.199219 L 129.167969 208.847656 L 129.582031 214.480469 L 130.777344 219.148438 L 132.355469 222.796875 L 134.9375 226.808594 L 138.207031 230.507812 L 140.011719 233.34375 L 145.847656 238.566406 L 150.785156 241.761719 L 157.722656 245.476562 L 165.507812 248.566406 L 172.382812 250.5625 L 176.101562 251.554688 L 171.453125 251.5625 L 164.644531 250.675781 L 158.902344 248.582031 L 150.242188 244.324219 L 146.550781 243.863281 L 151.136719 248.488281 L 147.226562 247.171875 L 140.070312 241.835938 L 135.851562 238.296875 L 131.316406 233.238281 L 128.167969 228.367188 L 126.253906 224.246094 L 124.640625 218.78125 L 123.59375 213.542969 L 123.1875 207.585938 L 123 204.855469 L 124.496094 196.898438 L 126.910156 194.445312 L 129.738281 191.242188 L 133.347656 187.238281 L 130.386719 188.894531 L 128.316406 190.089844 L 124.722656 194.121094 L 122.511719 196.21875 L 122.03125 198.925781 L 121.292969 204.964844 L 121.839844 207.96875 L 122.457031 210.429688 L 122.953125 216.117188 L 123.933594 220.121094 L 125.320312 224.5625 L 127.941406 230.148438 L 132.003906 235.960938 L 137.339844 241.421875 L 141.917969 245.414062 L 146.75 249.085938 L 153.527344 253.269531 L 161.945312 257.160156 L 171.414062 260.179688 L 181.074219 262.105469 L 185.546875 263.421875 L 192.605469 262.121094 L 196.300781 261.410156 L 192.675781 263.699219 L 187.238281 264.832031 L 179.144531 264.410156 L 173.25 263.9375 L 167.5 262.628906 L 160.074219 260.222656 L 152.019531 256.578125 L 144.257812 251.808594 L 137.476562 246.335938 L 132.019531 240.871094 L 128.859375 236.742188 L 124.492188 227.984375 L 123.289062 225.191406 L 121.875 222.421875 L 120.40625 217.554688 L 119.425781 208.691406 L 119.628906 201.375 L 119.128906 202.691406 L 118.742188 209.464844 L 118.996094 214.410156 L 119.777344 220.675781 L 122.726562 230.351562 L 122.617188 231.839844 L 120.980469 229.566406 L 117.230469 218.707031 L 116.410156 216.75 L 117.394531 222.25 L 120.496094 230.5625 L 125.71875 238.691406 L 127.507812 241.546875 L 134.851562 249.269531 L 140.238281 253.96875 L 136.863281 252.429688 L 128.777344 245.207031 L 123.921875 239.9375 L 120.105469 236.261719 L 123.957031 242.914062 L 125.839844 246.738281 L 120.632812 240.210938 L 117.300781 233.492188 L 113.292969 227.046875 L 111.304688 219.765625 L 110.292969 220.863281 L 111.800781 228.621094 L 113.722656 235.472656 L 116.757812 241.316406 L 123.488281 249.9375 L 129.875 256.460938 L 131.386719 261.410156 L 126.074219 260.628906 L 126.703125 262.574219 L 138.429688 271.15625 L 132.9375 268.851562 L 124.695312 263.222656 L 117.171875 256.769531 L 110.671875 249.652344 L 106.007812 242.5 L 102.570312 237.730469 L 100.675781 233.523438 L 97.582031 219.359375 L 97.648438 226.34375 L 101.410156 237.921875 L 106.664062 248.445312 L 109.882812 254.042969 L 106.480469 257.8125 L 104.601562 259.066406 L 95.222656 242.820312 L 94.324219 240.988281 L 97.339844 248.839844 L 105.21875 260.710938 L 101.511719 259.054688 L 95.058594 249.375 L 97.425781 255.441406 L 101.65625 263.007812 L 109.804688 272.988281 L 101.441406 266.625 L 95.460938 257.898438 L 89.847656 247.042969 L 86.769531 237.894531 L 84.605469 224.417969 L 84.253906 227.117188 L 86.433594 240.4375 L 90.675781 252.140625 L 95.800781 261.921875 L 98.90625 267.839844 L 90.179688 258.832031 L 83.292969 248.097656 L 77.199219 236.851562 L 74.355469 226.191406 L 71.820312 219.011719 L 70.136719 202.503906 L 70.585938 187.214844 L 72.457031 176.519531 L 76.300781 166.363281 L 70.585938 181.613281 L 68.777344 196.195312 L 68.984375 209.082031 L 71.074219 223.539062 L 73.753906 233.660156 L 78.027344 245.671875 L 72.230469 233.257812 L 68.496094 218.289062 L 67.003906 204.011719 L 66.882812 195.828125 L 67.644531 184.5 L 72.761719 168.238281 L 82.570312 152.027344 L 90.3125 142.539062 L 85.601562 147.367188 L 77.207031 158.675781 L 68.226562 177.453125 L 65.375 193.355469 L 67.703125 175.429688 L 75.417969 158.722656 L 81.246094 150.207031 L 88.378906 139.953125 L 95.320312 132.152344 L 95.632812 131.257812 L 85.445312 142.523438 L 75.402344 156.488281 L 67.742188 172.171875 L 63.960938 188.605469 L 63.53125 196.796875 L 63.804688 209.375 L 62.667969 196.109375 L 62.230469 199.496094 L 62.855469 212.015625 L 65.339844 226.300781 L 63.835938 222.582031 L 62.035156 210.21875 L 61.570312 197.164062 L 62.789062 183.320312 L 69.320312 165.4375 L 76.855469 152.867188 L 85.464844 141.339844 L 92.777344 132.757812 L 99.453125 124.964844 L 105.214844 118.886719 L 122.238281 104.964844 L 120.027344 105.648438 L 108.585938 114.613281 L 100.109375 121.988281 L 93.523438 128.597656 L 83.308594 139.152344 L 76.523438 147.132812 L 67.390625 161.203125 L 60.492188 177.914062 L 57.570312 195.492188 L 57.144531 206.34375 L 59.046875 224.148438 L 63.328125 240.195312 L 67.480469 250.566406 L 74.476562 262.953125 L 83.453125 274.222656 L 90.757812 282.0625 L 79.859375 271.5 L 71.699219 260.863281 L 67.644531 254.515625 L 62.039062 242.644531 L 57.144531 225.785156 L 54.949219 205.542969 L 55.359375 189.878906 L 58.898438 172.554688 L 68.304688 153.234375 L 80.121094 137.609375 L 87.226562 129.96875 L 82.03125 134.632812 L 71.773438 146.691406 L 63.082031 160.558594 L 53.976562 193.546875 L 54.589844 179.507812 L 52.90625 193.367188 L 53.25 207.457031 L 54.855469 220.539062 L 58.902344 236.144531 L 64.480469 249.996094 L 73.746094 265.75 L 85.699219 279.617188 L 98.132812 290.03125 L 109.988281 297.882812 L 120.53125 303.464844 L 128.421875 306.902344 L 135.585938 309.550781 L 148.351562 313 L 159.253906 315 L 175.402344 316.355469 L 189.167969 316.589844 L 187.550781 317.585938 L 170.847656 317.765625 L 163.4375 317.832031 L 155.734375 317.210938 L 137.683594 313.21875 L 118.902344 305.972656 L 105.167969 298.433594 L 94.09375 290.792969 L 83.878906 282.085938 L 75.535156 273.171875 L 67.183594 261.742188 L 61.949219 252.96875 L 70.824219 268.15625 L 81.164062 280.554688 L 91.71875 290.164062 L 107.070312 300.789062 L 123.894531 309.378906 L 137.324219 314.316406 L 146.765625 316.957031 L 152.0625 318.273438 L 162.859375 319.773438 L 176.382812 320.753906 L 199.738281 319.046875 L 209.113281 316.230469 L 214.488281 314.734375 L 220.105469 312.851562 L 230.039062 308.929688 L 246.972656 300.925781 L 260.199219 293.425781 L 272.074219 285.554688 L 277.691406 281.480469 L 284.585938 275.421875 L 295.15625 265.082031 L 305.875 250.9375 L 312.785156 235.476562 L 316.714844 221.09375 L 318.582031 210.246094 L 319.933594 201.441406 L 321.859375 188.671875 L 322.082031 175.582031 L 320.042969 163.136719 L 317.136719 150.21875 L 314.066406 138.949219 L 307.90625 125.886719 L 301.742188 114.3125 L 298.886719 104.660156 L 293.773438 102.867188 L 283.332031 90.625 L 272.839844 82.414062 L 267.015625 81.058594 L 264.015625 80.933594 L 254.640625 75 L 252.289062 71.679688 L 254.070312 71.566406 L 241.675781 63.808594 L 223.4375 58.992188 L 211.34375 59.011719 L 219.765625 59.898438 L 233.054688 64.414062 L 236.875 67.539062 L 226.367188 64.039062 L 212 61.613281 L 198.359375 61.371094 L 196.542969 63.523438 L 183.617188 67.109375 L 184.554688 71.730469 Z M 179.640625 76.867188 " fill-opacity="1" fill-rule="nonzero"/></g><g clip-path="url(#97509afb0b)"><path fill="#000000" d="M 205.851562 138.289062 C 191.457031 151.9375 207.910156 190.265625 207.910156 190.265625 C 186.410156 160.289062 193.761719 141.96875 203.734375 133.835938 C 213.707031 125.703125 239.378906 127.011719 239.378906 127.011719 C 239.378906 127.011719 238.945312 124.269531 235.019531 120.902344 C 231.09375 117.539062 225.859375 120.15625 223.523438 116.230469 C 221.1875 112.304688 209.40625 116.601562 209.40625 116.601562 C 209.21875 110.058594 206.601562 110.621094 200.429688 105.199219 C 194.261719 99.777344 193.515625 91.738281 190.523438 98.09375 C 187.53125 104.453125 197.003906 126.011719 197.003906 126.011719 C 175.316406 104.078125 188.527344 77.40625 188.527344 77.40625 C 188.527344 77.40625 190.398438 86.503906 198 88.996094 C 205.605469 91.488281 201.988281 97.597656 208.96875 99.964844 C 215.949219 102.332031 215.824219 110.808594 215.824219 110.808594 C 215.824219 110.808594 221.308594 107.316406 225.917969 110.808594 C 230.53125 114.296875 238.882812 110.308594 244.117188 119.40625 C 249.351562 128.507812 262.5 125.203125 262.5 125.203125 C 249.601562 139.039062 220.25 124.644531 205.851562 138.289062 " fill-opacity="1" fill-rule="nonzero"/></g><g clip-path="url(#2f95a2b9d1)"><path fill="#052249" d="M 133.6875 187.835938 C 140.417969 178.859375 120.226562 179.109375 120.226562 179.109375 C 143.160156 165.398438 168.585938 214.007812 170.828125 182.351562 C 173.074219 150.691406 196.257812 130.5 196.257812 130.5 C 170.828125 164.402344 181.300781 180.855469 173.570312 192.570312 C 165.84375 204.285156 153.128906 189.828125 138.421875 196.558594 C 123.714844 203.289062 112.5 190.265625 112.5 190.265625 C 112.5 190.265625 126.957031 196.808594 133.6875 187.835938 " fill-opacity="1" fill-rule="nonzero"/></g><path fill="#4799c6" d="M 185.023438 193.957031 C 185.308594 193.757812 185.597656 193.519531 185.910156 193.386719 C 186.21875 193.230469 186.53125 193.058594 186.855469 192.925781 L 187.835938 192.605469 C 188.496094 192.355469 189.160156 192.28125 189.832031 192.117188 C 190.507812 191.953125 191.167969 191.945312 191.84375 191.851562 C 192.523438 191.757812 193.1875 191.75 193.855469 191.734375 C 194.523438 191.722656 195.203125 191.691406 195.867188 191.71875 L 197.855469 191.820312 C 203.148438 192.167969 208.332031 193.3125 213.332031 194.589844 L 215.152344 195.0625 L 216.976562 195.46875 C 218.191406 195.734375 219.410156 195.984375 220.625 196.167969 C 223.046875 196.554688 225.480469 196.792969 227.8125 196.632812 C 230.132812 196.460938 232.355469 195.851562 233.929688 194.296875 C 235.507812 192.742188 236.21875 190.183594 236.140625 187.585938 C 236.671875 188.792969 236.917969 190.140625 236.886719 191.527344 C 236.863281 192.917969 236.441406 194.347656 235.675781 195.636719 C 234.871094 196.902344 233.695312 197.933594 232.402344 198.652344 C 231.109375 199.371094 229.714844 199.84375 228.324219 200.121094 C 225.539062 200.695312 222.773438 200.636719 220.085938 200.386719 C 217.398438 200.113281 214.765625 199.609375 212.207031 198.933594 C 207.210938 197.652344 202.363281 196.277344 197.410156 195.308594 L 195.558594 194.949219 C 194.941406 194.828125 194.328125 194.773438 193.707031 194.667969 C 193.085938 194.566406 192.464844 194.480469 191.855469 194.441406 C 191.242188 194.398438 190.605469 194.289062 190 194.300781 C 189.398438 194.304688 188.753906 194.222656 188.160156 194.304688 L 187.246094 194.375 L 186.359375 194.539062 C 186.046875 194.574219 185.789062 194.695312 185.5 194.785156 C 185.195312 194.863281 184.964844 195.03125 184.691406 195.167969 C 184.195312 195.480469 183.722656 195.921875 183.542969 196.558594 C 183.457031 195.890625 183.804688 195.210938 184.242188 194.667969 C 184.484375 194.417969 184.730469 194.136719 185.023438 193.957031 " fill-opacity="1" fill-rule="nonzero"/><g transform="matrix(1, 0, 0, 1, 86, 195)"><g clip-path="url(#21f8d9abb3)"><g fill="#052249" fill-opacity="1"><g transform="translate(0.520111, 44.644237)"><g><path d="M 21.75 -36.265625 C 24.28125 -36.265625 26.71875 -35.90625 29.0625 -35.1875 C 31.40625 -34.46875 33.492188 -33.359375 35.328125 -31.859375 C 37.160156 -30.367188 38.613281 -28.441406 39.6875 -26.078125 C 40.757812 -23.722656 41.296875 -20.90625 41.296875 -17.625 C 41.296875 -14.601562 40.851562 -12.023438 39.96875 -9.890625 C 39.082031 -7.753906 37.910156 -5.976562 36.453125 -4.5625 C 35.003906 -3.144531 33.421875 -2.019531 31.703125 -1.1875 C 29.984375 -0.351562 28.253906 0.21875 26.515625 0.53125 C 24.773438 0.851562 23.1875 1.015625 21.75 1.015625 C 20.351562 1.015625 18.785156 0.851562 17.046875 0.53125 C 15.316406 0.21875 13.582031 -0.351562 11.84375 -1.1875 C 10.101562 -2.019531 8.515625 -3.144531 7.078125 -4.5625 C 5.640625 -5.976562 4.476562 -7.753906 3.59375 -9.890625 C 2.707031 -12.023438 2.265625 -14.601562 2.265625 -17.625 C 2.265625 -20.90625 2.789062 -23.722656 3.84375 -26.078125 C 4.90625 -28.441406 6.351562 -30.367188 8.1875 -31.859375 C 10.019531 -33.359375 12.101562 -34.46875 14.4375 -35.1875 C 16.78125 -35.90625 19.21875 -36.265625 21.75 -36.265625 Z M 21.75 0.109375 C 23.34375 0.109375 25.035156 -0.125 26.828125 -0.59375 C 28.617188 -1.0625 30.285156 -1.921875 31.828125 -3.171875 C 33.378906 -4.421875 34.644531 -6.210938 35.625 -8.546875 C 36.613281 -10.890625 37.109375 -13.914062 37.109375 -17.625 C 37.109375 -20.570312 36.757812 -23.070312 36.0625 -25.125 C 35.363281 -27.1875 34.445312 -28.878906 33.3125 -30.203125 C 32.175781 -31.523438 30.921875 -32.5625 29.546875 -33.3125 C 28.171875 -34.070312 26.800781 -34.59375 25.4375 -34.875 C 24.082031 -35.15625 22.851562 -35.296875 21.75 -35.296875 C 20.65625 -35.296875 19.425781 -35.15625 18.0625 -34.875 C 16.707031 -34.59375 15.347656 -34.070312 13.984375 -33.3125 C 12.628906 -32.5625 11.375 -31.523438 10.21875 -30.203125 C 9.070312 -28.878906 8.148438 -27.1875 7.453125 -25.125 C 6.753906 -23.070312 6.40625 -20.570312 6.40625 -17.625 C 6.40625 -13.914062 6.894531 -10.890625 7.875 -8.546875 C 8.851562 -6.210938 10.125 -4.421875 11.6875 -3.171875 C 13.257812 -1.921875 14.929688 -1.0625 16.703125 -0.59375 C 18.484375 -0.125 20.164062 0.109375 21.75 0.109375 Z M 21.75 0.109375 "/></g></g></g><g fill="#052249" fill-opacity="1"><g transform="translate(44.37664, 44.644237)"><g><path d="M 32.1875 -3.234375 L 32.1875 -1.921875 C 32.1875 -1.921875 31.769531 -1.675781 30.9375 -1.1875 C 30.101562 -0.695312 28.875 -0.207031 27.25 0.28125 C 25.625 0.769531 23.625 1.015625 21.25 1.015625 C 19.8125 1.015625 18.25 0.851562 16.5625 0.53125 C 14.882812 0.21875 13.207031 -0.351562 11.53125 -1.1875 C 9.851562 -2.019531 8.3125 -3.144531 6.90625 -4.5625 C 5.507812 -5.976562 4.382812 -7.753906 3.53125 -9.890625 C 2.6875 -12.023438 2.265625 -14.601562 2.265625 -17.625 C 2.265625 -20.90625 2.789062 -23.722656 3.84375 -26.078125 C 4.90625 -28.441406 6.351562 -30.367188 8.1875 -31.859375 C 10.019531 -33.359375 12.101562 -34.46875 14.4375 -35.1875 C 16.78125 -35.90625 19.21875 -36.265625 21.75 -36.265625 C 23.90625 -36.265625 25.765625 -36.0625 27.328125 -35.65625 C 28.898438 -35.257812 30.101562 -34.875 30.9375 -34.5 C 31.769531 -34.125 32.1875 -33.9375 32.1875 -33.9375 L 32.1875 -32.6875 C 32.1875 -32.6875 31.78125 -32.90625 30.96875 -33.34375 C 30.15625 -33.78125 28.972656 -34.210938 27.421875 -34.640625 C 25.867188 -35.078125 23.976562 -35.296875 21.75 -35.296875 C 20.65625 -35.296875 19.425781 -35.15625 18.0625 -34.875 C 16.707031 -34.59375 15.347656 -34.070312 13.984375 -33.3125 C 12.628906 -32.5625 11.375 -31.523438 10.21875 -30.203125 C 9.070312 -28.878906 8.148438 -27.1875 7.453125 -25.125 C 6.753906 -23.070312 6.40625 -20.570312 6.40625 -17.625 C 6.40625 -13.914062 6.894531 -10.890625 7.875 -8.546875 C 8.851562 -6.210938 10.125 -4.421875 11.6875 -3.171875 C 13.257812 -1.921875 14.929688 -1.0625 16.703125 -0.59375 C 18.484375 -0.125 20.164062 0.109375 21.75 0.109375 C 23.945312 0.109375 25.816406 -0.160156 27.359375 -0.703125 C 28.910156 -1.253906 30.101562 -1.8125 30.9375 -2.375 C 31.769531 -2.945312 32.1875 -3.234375 32.1875 -3.234375 Z M 32.1875 -3.234375 "/></g></g></g><g fill="#052249" fill-opacity="1"><g transform="translate(78.940576, 44.644237)"><g><path d="M 20.796875 -34.609375 L 6.796875 -34.609375 L 6.796875 -19.03125 L 19.265625 -19.03125 L 19.265625 -18.078125 L 6.796875 -18.078125 L 6.796875 -0.90625 L 20.796875 -0.90625 L 20.796875 0.0625 L 2.71875 0.0625 L 2.71875 -35.578125 L 20.796875 -35.578125 Z M 20.796875 -34.609375 "/></g></g></g><g fill="#052249" fill-opacity="1"><g transform="translate(102.115409, 44.644237)"><g><path d="M 6.796875 -0.90625 L 20.96875 -0.90625 L 20.96875 0.0625 L 2.71875 0.0625 L 2.71875 -35.578125 L 6.796875 -35.578125 Z M 6.796875 -0.90625 "/></g></g></g><g fill="#052249" fill-opacity="1"><g transform="translate(125.233582, 44.644237)"><g><path d="M 27.640625 -35.578125 L 28.71875 -35.578125 L 17.390625 -16.59375 L 17.390625 0.0625 L 13.3125 0.0625 L 13.3125 -15.46875 L 1.8125 -35.578125 L 6.515625 -35.578125 L 16.828125 -17.5 Z M 27.640625 -35.578125 "/></g></g></g><g fill="#052249" fill-opacity="1"><g transform="translate(155.831167, 44.644237)"><g><path d="M 31.671875 -35.578125 L 31.671875 1.015625 L 31.5 1.015625 L 3.6875 -29.796875 L 3.6875 0.0625 L 2.71875 0.0625 L 2.71875 -36.265625 L 2.890625 -36.265625 L 30.703125 -5.4375 L 30.703125 -35.578125 Z M 31.671875 -35.578125 "/></g></g></g></g></g></svg>